<svg width="620" height="530" viewBox="0 0 620 530" fill="none" xmlns="http://www.w3.org/2000/svg">
<path fill-rule="evenodd" clip-rule="evenodd" d="M380.937 41.2476C443.51 53.3754 504.926 86.6003 535.138 141.609C544.052 157.83 549.634 175.59 553.424 193.57C562.439 236.278 561.371 281.54 545.565 322.378C529.772 363.215 498.429 399.2 457.179 417.254C430.4 428.976 391.427 432.826 361.889 434.818C344.787 435.98 331.359 450.244 333.088 466.635C333.864 473.957 335.784 481.144 338.861 487.879C326.947 481.144 316.596 471.879 308.751 460.939C305.724 456.698 302.978 452.126 298.756 448.948C293.123 444.707 285.672 443.57 278.589 442.58C232.05 436.065 197.718 428.89 155.935 406.864C73.0933 363.203 43.9366 265.014 71.4404 182.447C110.134 66.2561 236.514 25.4565 354.934 37.4181C363.568 38.2908 372.265 39.5657 380.937 41.2476Z" fill="#F6E6F4" stroke="black" stroke-width="20" stroke-miterlimit="2" stroke-linecap="round" stroke-linejoin="round"/>
</svg>
